<svg version="1.1" id="Layer_1" xmlns="http://www.w3.org/2000/svg" xmlns:xlink="http://www.w3.org/1999/xlink" x="0px" y="0px"
	 width="100%" viewBox="0 0 592 352" enable-background="new 0 0 592 352" xml:space="preserve">
<path fill="#000000" opacity="1.000000" stroke="none" 
	d="
M275.000549,175.867981 
	C289.229736,175.794952 303.068329,176.006027 316.890808,175.628738 
	C325.580414,175.391571 333.546265,172.477493 340.134766,166.512726 
	C352.828278,155.020859 351.368164,134.534286 337.157501,124.955055 
	C329.567078,119.838448 321.073303,118.061661 312.020508,118.092979 
	C287.188660,118.178879 262.355255,118.018326 237.525162,118.246979 
	C232.642197,118.291946 229.588989,116.815971 226.871338,112.680756 
	C219.919342,102.102570 212.458588,91.859070 205.224823,81.465363 
	C204.205093,80.000191 202.934036,78.629082 202.708847,76.779793 
	C204.139618,75.067604 205.928482,75.700432 207.477203,75.699219 
	C245.808624,75.669090 284.160156,74.931793 322.464813,75.949768 
	C350.374695,76.691490 373.686523,88.126755 387.913025,113.364838 
	C407.793579,148.633286 392.442352,193.691833 355.435089,210.350693 
	C353.642822,211.157486 351.837891,211.936188 349.334351,213.038040 
	C366.363739,237.327332 383.096405,261.193420 399.830780,285.061951 
	C397.498077,286.865265 395.601410,286.322388 393.845825,286.329895 
	C380.680023,286.386108 367.510437,286.196136 354.349792,286.463257 
	C349.886505,286.553864 347.043304,285.207123 344.465729,281.461609 
	C325.290649,253.597794 305.909119,225.876022 286.587250,198.113251 
	C282.494415,192.232407 278.325348,186.403488 274.317291,180.465637 
	C273.372742,179.066269 271.092682,177.191177 275.000549,175.867981 
z"/>
</svg>